<?xml version="1.0" standalone="no"?>
<!DOCTYPE svg PUBLIC "-//W3C//DTD SVG 20010904//EN"
 "http://www.w3.org/TR/2001/REC-SVG-20010904/DTD/svg10.dtd">
<svg version="1.0" xmlns="http://www.w3.org/2000/svg"
 width="200.000000pt" height="200.000000pt" viewBox="0 0 200.000000 200.000000"
 preserveAspectRatio="xMidYMid meet">

<g transform="translate(0.000000,200.000000) scale(0.100000,-0.100000)"
fill="#ffffff" stroke="none">
<path d="M439 1915 c-144 -29 -302 -143 -362 -260 -45 -90 -49 -134 -45 -510
3 -337 4 -352 25 -398 12 -26 36 -64 53 -85 19 -24 30 -48 30 -68 0 -70 -64
-229 -121 -303 -24 -30 -24 -63 -1 -84 47 -43 97 -3 162 128 22 44 48 112 58
151 l17 70 35 -9 c58 -15 179 -3 235 24 63 30 134 100 165 164 25 49 25 54 25
320 l0 269 -26 15 c-24 13 -29 13 -53 -2 l-26 -17 0 -228 c0 -263 -8 -307 -66
-365 -52 -51 -99 -71 -169 -71 -71 0 -126 25 -172 78 -56 63 -58 79 -58 451
l0 340 27 58 c48 101 161 189 279 216 24 6 169 11 322 11 256 0 281 -2 316
-20 42 -21 90 -72 167 -176 81 -110 109 -138 170 -169 58 -29 63 -30 240 -35
133 -4 185 -9 198 -19 13 -11 16 -35 16 -142 l0 -129 -27 6 c-16 4 -52 15 -82
25 -71 25 -105 12 -109 -43 -3 -30 1 -40 23 -54 33 -22 131 -54 163 -54 47 0
-3 -36 -81 -58 -197 -55 -194 -55 -552 -59 -290 -4 -343 -7 -357 -20 -23 -21
-23 -56 0 -76 16 -15 46 -17 205 -17 l187 0 -61 -82 c-120 -162 -187 -328
-196 -489 l-6 -97 28 -18 c25 -16 30 -16 54 -3 23 13 27 23 33 89 20 196 112
388 262 548 l49 52 64 0 c128 0 385 67 452 117 62 48 71 84 71 300 0 204 -5
230 -48 276 -46 49 -58 52 -247 57 -233 6 -224 2 -377 192 -109 136 -122 149
-185 180 l-67 33 -286 2 c-205 1 -303 -2 -351 -12z"/>
<path d="M975 1568 c-52 -28 -62 -92 -20 -133 52 -53 145 -16 145 57 -1 66
-68 108 -125 76z"/>
</g>
</svg>
